<svg preserveAspectRatio="none" width="100%" height="100%" overflow="visible" style="display: block;" viewBox="0 0 136 30.6146" fill="none" xmlns="http://www.w3.org/2000/svg">
<g id="Group">
<g id="Group_2">
<path id="Vector" opacity="0.1" d="M52.1456 13.0398C44.8815 19.1639 40.9698 26.496 43.4082 29.4163L38.366 23.3783C35.9276 20.4591 39.8405 13.1271 47.1033 7.00173C54.3674 0.877576 62.2312 -1.72109 64.6696 1.19807L69.7119 7.23613C67.2735 4.31696 59.4096 6.91443 52.1456 13.0398Z" fill="var(--fill-0, #34BBFC)"/>
<path id="Vector_2" d="M55.9323 17.5746C48.6682 23.6988 40.8044 26.2974 38.366 23.3783L43.4082 29.4163C45.8466 32.3355 53.7105 29.738 60.9745 23.6127C68.2386 17.4885 72.1503 10.1565 69.7119 7.23613L64.6696 1.19807C67.1081 4.11724 63.1952 11.4493 55.9323 17.5746Z" fill="url(#paint0_linear_0_43)"/>
</g>
<path id="Vector_3" d="M136 19.0013H111.756V11.753H136V19.0013ZM38.6611 7.29592L51.3149 9.76783V2.61042L38.6611 0.138516V7.29592ZM85.7276 0.138516H78.5147V15.361H85.7276V0.138516ZM102.583 0.138516H95.5455V0.509242C95.5455 1.65012 95.5455 5.40881 95.5455 11.2459C95.5455 14.9424 95.2706 20.3144 91.3648 22.0819C90.3033 22.5627 89.143 22.8592 88.0017 23.0757C87.2592 23.2168 86.5094 23.3221 85.7573 23.401L88.8717 30.5165C89.2941 30.4268 89.8832 30.2929 90.558 30.1147C93.9389 29.2214 97.0283 27.7648 99.2001 24.8958C101.121 22.3582 102.757 18.114 102.757 10.9506V0.138516H102.582H102.583ZM29.5156 4.47003H22.2277H14.9208V0.138516H6.99273V4.46884H0V11.6896C1.88028 11.6896 5.46709 11.692 7.34855 11.6932V15.3299C7.34974 16.0295 7.295 16.7291 7.15695 17.4144C6.98916 18.2479 6.72021 19.0515 6.29893 19.799C5.0232 22.0664 2.58836 23.1702 0 23.3233C1.09127 25.8167 2.05521 28.0195 3.14649 30.5118C6.23229 29.8684 9.3038 28.5971 11.4173 26.2484C13.1262 24.3493 14.0902 21.8679 14.5448 19.3481C14.7697 18.0996 14.878 16.8367 14.9232 15.5679C14.9696 14.2775 14.9506 12.9824 14.9232 11.6932C14.9232 11.6932 14.9232 11.6908 14.9232 11.6896H22.1956H22.2301C22.3194 15.0573 22.2194 18.4297 21.9302 21.7853C21.8886 22.2649 21.8112 22.8042 21.4233 23.0877C21.1876 23.2599 20.8842 23.2981 20.5938 23.3244C19.7251 23.401 18.8516 23.4058 17.9816 23.3412C17.9079 23.3352 17.8341 23.3304 17.7603 23.3244C18.178 24.2788 18.5957 25.2331 19.0134 26.1886C19.6453 27.6332 20.2772 29.0779 20.9092 30.5225H20.9115C22.9453 30.5273 24.7018 30.5321 26.794 28.7861C28.228 27.5902 28.8242 26.1575 29.1265 23.4871C29.1812 23.0769 29.2169 22.6607 29.2407 22.2446C29.3061 21.3608 29.3549 20.3634 29.3978 19.2225C29.6001 13.8398 29.5918 4.27749 29.518 4.47123L29.5156 4.47003Z" fill="url(#paint1_linear_0_43)"/>
</g>
<defs>
<linearGradient id="paint0_linear_0_43" x1="44.077" y1="28.2121" x2="68.5884" y2="7.7442" gradientUnits="userSpaceOnUse">
<stop stop-color="#1860E2"/>
<stop offset="0.11" stop-color="#1F78E9"/>
<stop offset="0.26" stop-color="#2895F1"/>
<stop offset="0.41" stop-color="#2EAAF7"/>
<stop offset="0.56" stop-color="#32B6FA"/>
<stop offset="0.7" stop-color="#34BBFC"/>
<stop offset="0.81" stop-color="#30B2FC"/>
<stop offset="0.98" stop-color="#2799FC"/>
<stop offset="1" stop-color="#2697FC"/>
</linearGradient>
<linearGradient id="paint1_linear_0_43" x1="68.0006" y1="29.3876" x2="68.0006" y2="1.18731" gradientUnits="userSpaceOnUse">
<stop stop-color="#3775E6"/>
<stop offset="1" stop-color="#2697FC"/>
</linearGradient>
</defs>
</svg>
